<svg width="852" height="168" viewBox="0 0 852 168" fill="none" xmlns="http://www.w3.org/2000/svg">
<rect width="852" height="168" fill="white"/>
<mask id="mask0_1_10" style="mask-type:alpha" maskUnits="userSpaceOnUse" x="86" y="59" width="634" height="49">
<path d="M95.8864 60.4545V107H86.0455V60.4545H95.8864ZM142.915 60.4545V107H134.415L114.165 77.7045H113.824V107H103.983V60.4545H112.619L132.71 89.7273H133.119V60.4545H142.915ZM176.295 73.8409C176.114 72.0076 175.333 70.5833 173.955 69.5682C172.576 68.553 170.705 68.0455 168.341 68.0455C166.735 68.0455 165.379 68.2727 164.273 68.7273C163.167 69.1667 162.318 69.7803 161.727 70.5682C161.152 71.3561 160.864 72.25 160.864 73.25C160.833 74.0833 161.008 74.8106 161.386 75.4318C161.78 76.053 162.318 76.5909 163 77.0455C163.682 77.4848 164.47 77.8712 165.364 78.2045C166.258 78.5227 167.212 78.7955 168.227 79.0227L172.409 80.0227C174.439 80.4773 176.303 81.0833 178 81.8409C179.697 82.5985 181.167 83.5303 182.409 84.6364C183.652 85.7424 184.614 87.0455 185.295 88.5455C185.992 90.0455 186.348 91.7652 186.364 93.7045C186.348 96.553 185.621 99.0227 184.182 101.114C182.758 103.189 180.697 104.803 178 105.955C175.318 107.091 172.083 107.659 168.295 107.659C164.538 107.659 161.265 107.083 158.477 105.932C155.705 104.78 153.538 103.076 151.977 100.818C150.432 98.5455 149.621 95.7348 149.545 92.3864H159.068C159.174 93.947 159.621 95.25 160.409 96.2955C161.212 97.3258 162.28 98.1061 163.614 98.6364C164.962 99.1515 166.485 99.4091 168.182 99.4091C169.848 99.4091 171.295 99.1667 172.523 98.6818C173.765 98.197 174.727 97.5227 175.409 96.6591C176.091 95.7955 176.432 94.803 176.432 93.6818C176.432 92.6364 176.121 91.7576 175.5 91.0455C174.894 90.3333 174 89.7273 172.818 89.2273C171.652 88.7273 170.22 88.2727 168.523 87.8636L163.455 86.5909C159.53 85.6364 156.432 84.1439 154.159 82.1136C151.886 80.0833 150.758 77.3485 150.773 73.9091C150.758 71.0909 151.508 68.6288 153.023 66.5227C154.553 64.4167 156.652 62.7727 159.318 61.5909C161.985 60.4091 165.015 59.8182 168.409 59.8182C171.864 59.8182 174.879 60.4091 177.455 61.5909C180.045 62.7727 182.061 64.4167 183.5 66.5227C184.939 68.6288 185.682 71.0682 185.727 73.8409H176.295ZM192.983 107V60.4545H211.347C214.877 60.4545 217.884 61.1288 220.369 62.4773C222.854 63.8106 224.748 65.6667 226.051 68.0455C227.369 70.4091 228.028 73.1364 228.028 76.2273C228.028 79.3182 227.362 82.0455 226.028 84.4091C224.695 86.7727 222.763 88.6136 220.233 89.9318C217.718 91.25 214.672 91.9091 211.097 91.9091H199.392V84.0227H209.506C211.4 84.0227 212.96 83.697 214.188 83.0455C215.43 82.3788 216.354 81.4621 216.96 80.2955C217.581 79.1136 217.892 77.7576 217.892 76.2273C217.892 74.6818 217.581 73.3333 216.96 72.1818C216.354 71.0151 215.43 70.1136 214.188 69.4773C212.945 68.8258 211.369 68.5 209.46 68.5H202.824V107H192.983ZM234.42 107V60.4545H252.784C256.299 60.4545 259.299 61.0833 261.784 62.3409C264.284 63.5833 266.186 65.3485 267.489 67.6364C268.807 69.9091 269.466 72.5833 269.466 75.6591C269.466 78.75 268.799 81.4091 267.466 83.6364C266.133 85.8485 264.201 87.5455 261.67 88.7273C259.155 89.9091 256.11 90.5 252.534 90.5H240.239V82.5909H250.943C252.822 82.5909 254.383 82.3333 255.625 81.8182C256.867 81.303 257.792 80.5303 258.398 79.5C259.019 78.4697 259.33 77.1894 259.33 75.6591C259.33 74.1136 259.019 72.8106 258.398 71.75C257.792 70.6894 256.86 69.8864 255.602 69.3409C254.36 68.7803 252.792 68.5 250.898 68.5H244.261V107H234.42ZM259.557 85.8182L271.125 107H260.261L248.943 85.8182H259.557ZM284.443 107H273.898L289.966 60.4545H302.648L318.693 107H308.148L296.489 71.0909H296.125L284.443 107ZM283.784 88.7045H308.693V96.3864H283.784V88.7045ZM363.227 60.4545V107H354.727L334.477 77.7045H334.136V107H324.295V60.4545H332.932L353.023 89.7273H353.432V60.4545H363.227ZM414.131 83.7273C414.131 88.803 413.169 93.1212 411.244 96.6818C409.335 100.242 406.729 102.962 403.426 104.841C400.138 106.705 396.441 107.636 392.335 107.636C388.199 107.636 384.487 106.697 381.199 104.818C377.911 102.939 375.313 100.22 373.403 96.6591C371.494 93.0985 370.54 88.7879 370.54 83.7273C370.54 78.6515 371.494 74.3333 373.403 70.7727C375.313 67.2121 377.911 64.5 381.199 62.6364C384.487 60.7576 388.199 59.8182 392.335 59.8182C396.441 59.8182 400.138 60.7576 403.426 62.6364C406.729 64.5 409.335 67.2121 411.244 70.7727C413.169 74.3333 414.131 78.6515 414.131 83.7273ZM404.153 83.7273C404.153 80.4394 403.661 77.6667 402.676 75.4091C401.706 73.1515 400.335 71.4394 398.562 70.2727C396.79 69.1061 394.714 68.5227 392.335 68.5227C389.956 68.5227 387.881 69.1061 386.108 70.2727C384.335 71.4394 382.956 73.1515 381.972 75.4091C381.002 77.6667 380.517 80.4394 380.517 83.7273C380.517 87.0152 381.002 89.7879 381.972 92.0455C382.956 94.303 384.335 96.0152 386.108 97.1818C387.881 98.3485 389.956 98.9318 392.335 98.9318C394.714 98.9318 396.79 98.3485 398.562 97.1818C400.335 96.0152 401.706 94.303 402.676 92.0455C403.661 89.7879 404.153 87.0152 404.153 83.7273ZM449.869 99.9091V67.7273H458.006V99.9091H449.869ZM437.847 87.8864V79.75H470.028V87.8864H437.847ZM523.295 60.4545H533.136V90.6818C533.136 94.0758 532.326 97.0455 530.705 99.5909C529.098 102.136 526.848 104.121 523.955 105.545C521.061 106.955 517.689 107.659 513.841 107.659C509.977 107.659 506.598 106.955 503.705 105.545C500.811 104.121 498.561 102.136 496.955 99.5909C495.348 97.0455 494.545 94.0758 494.545 90.6818V60.4545H504.386V89.8409C504.386 91.6136 504.773 93.1894 505.545 94.5682C506.333 95.947 507.439 97.0303 508.864 97.8182C510.288 98.6061 511.947 99 513.841 99C515.75 99 517.409 98.6061 518.818 97.8182C520.242 97.0303 521.341 95.947 522.114 94.5682C522.902 93.1894 523.295 91.6136 523.295 89.8409V60.4545ZM557.733 107H541.233V60.4545H557.869C562.551 60.4545 566.581 61.3864 569.96 63.25C573.339 65.0985 575.938 67.7576 577.756 71.2273C579.589 74.697 580.506 78.8485 580.506 83.6818C580.506 88.5303 579.589 92.697 577.756 96.1818C575.938 99.6667 573.324 102.341 569.915 104.205C566.521 106.068 562.46 107 557.733 107ZM551.074 98.5682H557.324C560.233 98.5682 562.68 98.053 564.665 97.0227C566.665 95.9773 568.165 94.3636 569.165 92.1818C570.18 89.9848 570.688 87.1515 570.688 83.6818C570.688 80.2424 570.18 77.4318 569.165 75.25C568.165 73.0682 566.672 71.4621 564.688 70.4318C562.703 69.4015 560.256 68.8864 557.347 68.8864H551.074V98.5682ZM593.193 107H582.648L598.716 60.4545H611.398L627.443 107H616.898L605.239 71.0909H604.875L593.193 107ZM592.534 88.7045H617.443V96.3864H592.534V88.7045ZM641.068 107H630.523L646.591 60.4545H659.273L675.318 107H664.773L653.114 71.0909H652.75L641.068 107ZM640.409 88.7045H665.318V96.3864H640.409V88.7045ZM719.852 60.4545V107H711.352L691.102 77.7045H690.761V107H680.92V60.4545H689.557L709.648 89.7273H710.057V60.4545H719.852Z" fill="white"/>
</mask>
<g mask="url(#mask0_1_10)">
</g>
</svg>
