<svg width="642" height="57" viewBox="0 0 642 57" fill="none" xmlns="http://www.w3.org/2000/svg">
<path d="M13.8864 1.45454V48H4.04545V1.45454H13.8864ZM60.9148 1.45454V48H52.4148L32.1648 18.7045H31.8239V48H21.983V1.45454H30.6193L50.7102 30.7273H51.1193V1.45454H60.9148ZM94.2955 14.8409C94.1136 13.0076 93.3333 11.5833 91.9545 10.5682C90.5758 9.55303 88.7045 9.04545 86.3409 9.04545C84.7348 9.04545 83.3788 9.27273 82.2727 9.72727C81.1667 10.1667 80.3182 10.7803 79.7273 11.5682C79.1515 12.3561 78.8636 13.25 78.8636 14.25C78.8333 15.0833 79.0076 15.8106 79.3864 16.4318C79.7803 17.053 80.3182 17.5909 81 18.0455C81.6818 18.4848 82.4697 18.8712 83.3636 19.2045C84.2576 19.5227 85.2121 19.7955 86.2273 20.0227L90.4091 21.0227C92.4394 21.4773 94.303 22.0833 96 22.8409C97.697 23.5985 99.1667 24.5303 100.409 25.6364C101.652 26.7424 102.614 28.0455 103.295 29.5455C103.992 31.0455 104.348 32.7652 104.364 34.7045C104.348 37.553 103.621 40.0227 102.182 42.1136C100.758 44.1894 98.697 45.803 96 46.9545C93.3182 48.0909 90.0833 48.6591 86.2955 48.6591C82.5379 48.6591 79.2652 48.0833 76.4773 46.9318C73.7045 45.7803 71.5379 44.0758 69.9773 41.8182C68.4318 39.5455 67.6212 36.7348 67.5455 33.3864H77.0682C77.1742 34.947 77.6212 36.25 78.4091 37.2955C79.2121 38.3258 80.2803 39.1061 81.6136 39.6364C82.9621 40.1515 84.4848 40.4091 86.1818 40.4091C87.8485 40.4091 89.2955 40.1667 90.5227 39.6818C91.7652 39.197 92.7273 38.5227 93.4091 37.6591C94.0909 36.7955 94.4318 35.803 94.4318 34.6818C94.4318 33.6364 94.1212 32.7576 93.5 32.0455C92.8939 31.3333 92 30.7273 90.8182 30.2273C89.6515 29.7273 88.2197 29.2727 86.5227 28.8636L81.4545 27.5909C77.5303 26.6364 74.4318 25.1439 72.1591 23.1136C69.8864 21.0833 68.7576 18.3485 68.7727 14.9091C68.7576 12.0909 69.5076 9.62879 71.0227 7.52273C72.553 5.41667 74.6515 3.77273 77.3182 2.59091C79.9848 1.40909 83.0152 0.81818 86.4091 0.81818C89.8636 0.81818 92.8788 1.40909 95.4545 2.59091C98.0455 3.77273 100.061 5.41667 101.5 7.52273C102.939 9.62879 103.682 12.0682 103.727 14.8409H94.2955ZM110.983 48V1.45454H129.347C132.877 1.45454 135.884 2.12879 138.369 3.47727C140.854 4.81061 142.748 6.66667 144.051 9.04545C145.369 11.4091 146.028 14.1364 146.028 17.2273C146.028 20.3182 145.362 23.0455 144.028 25.4091C142.695 27.7727 140.763 29.6136 138.233 30.9318C135.718 32.25 132.672 32.9091 129.097 32.9091H117.392V25.0227H127.506C129.4 25.0227 130.96 24.697 132.188 24.0455C133.43 23.3788 134.354 22.4621 134.96 21.2955C135.581 20.1136 135.892 18.7576 135.892 17.2273C135.892 15.6818 135.581 14.3333 134.96 13.1818C134.354 12.0151 133.43 11.1136 132.188 10.4773C130.945 9.82576 129.369 9.5 127.46 9.5H120.824V48H110.983ZM152.42 48V1.45454H170.784C174.299 1.45454 177.299 2.08333 179.784 3.34091C182.284 4.58333 184.186 6.34848 185.489 8.63636C186.807 10.9091 187.466 13.5833 187.466 16.6591C187.466 19.75 186.799 22.4091 185.466 24.6364C184.133 26.8485 182.201 28.5455 179.67 29.7273C177.155 30.9091 174.11 31.5 170.534 31.5H158.239V23.5909H168.943C170.822 23.5909 172.383 23.3333 173.625 22.8182C174.867 22.303 175.792 21.5303 176.398 20.5C177.019 19.4697 177.33 18.1894 177.33 16.6591C177.33 15.1136 177.019 13.8106 176.398 12.75C175.792 11.6894 174.86 10.8864 173.602 10.3409C172.36 9.7803 170.792 9.5 168.898 9.5H162.261V48H152.42ZM177.557 26.8182L189.125 48H178.261L166.943 26.8182H177.557ZM202.443 48H191.898L207.966 1.45454H220.648L236.693 48H226.148L214.489 12.0909H214.125L202.443 48ZM201.784 29.7045H226.693V37.3864H201.784V29.7045ZM281.227 1.45454V48H272.727L252.477 18.7045H252.136V48H242.295V1.45454H250.932L271.023 30.7273H271.432V1.45454H281.227ZM332.131 24.7273C332.131 29.803 331.169 34.1212 329.244 37.6818C327.335 41.2424 324.729 43.9621 321.426 45.8409C318.138 47.7045 314.441 48.6364 310.335 48.6364C306.199 48.6364 302.487 47.697 299.199 45.8182C295.911 43.9394 293.313 41.2197 291.403 37.6591C289.494 34.0985 288.54 29.7879 288.54 24.7273C288.54 19.6515 289.494 15.3333 291.403 11.7727C293.313 8.21212 295.911 5.5 299.199 3.63636C302.487 1.75757 306.199 0.81818 310.335 0.81818C314.441 0.81818 318.138 1.75757 321.426 3.63636C324.729 5.5 327.335 8.21212 329.244 11.7727C331.169 15.3333 332.131 19.6515 332.131 24.7273ZM322.153 24.7273C322.153 21.4394 321.661 18.6667 320.676 16.4091C319.706 14.1515 318.335 12.4394 316.562 11.2727C314.79 10.1061 312.714 9.52273 310.335 9.52273C307.956 9.52273 305.881 10.1061 304.108 11.2727C302.335 12.4394 300.956 14.1515 299.972 16.4091C299.002 18.6667 298.517 21.4394 298.517 24.7273C298.517 28.0152 299.002 30.7879 299.972 33.0455C300.956 35.303 302.335 37.0152 304.108 38.1818C305.881 39.3485 307.956 39.9318 310.335 39.9318C312.714 39.9318 314.79 39.3485 316.562 38.1818C318.335 37.0152 319.706 35.303 320.676 33.0455C321.661 30.7879 322.153 28.0152 322.153 24.7273ZM367.869 40.9091V8.72727H376.006V40.9091H367.869ZM355.847 28.8864V20.75H388.028V28.8864H355.847ZM441.295 1.45454H451.136V31.6818C451.136 35.0758 450.326 38.0455 448.705 40.5909C447.098 43.1364 444.848 45.1212 441.955 46.5455C439.061 47.9545 435.689 48.6591 431.841 48.6591C427.977 48.6591 424.598 47.9545 421.705 46.5455C418.811 45.1212 416.561 43.1364 414.955 40.5909C413.348 38.0455 412.545 35.0758 412.545 31.6818V1.45454H422.386V30.8409C422.386 32.6136 422.773 34.1894 423.545 35.5682C424.333 36.947 425.439 38.0303 426.864 38.8182C428.288 39.6061 429.947 40 431.841 40C433.75 40 435.409 39.6061 436.818 38.8182C438.242 38.0303 439.341 36.947 440.114 35.5682C440.902 34.1894 441.295 32.6136 441.295 30.8409V1.45454ZM475.733 48H459.233V1.45454H475.869C480.551 1.45454 484.581 2.38636 487.96 4.25C491.339 6.09848 493.938 8.75757 495.756 12.2273C497.589 15.697 498.506 19.8485 498.506 24.6818C498.506 29.5303 497.589 33.697 495.756 37.1818C493.938 40.6667 491.324 43.3409 487.915 45.2045C484.521 47.0682 480.46 48 475.733 48ZM469.074 39.5682H475.324C478.233 39.5682 480.68 39.053 482.665 38.0227C484.665 36.9773 486.165 35.3636 487.165 33.1818C488.18 30.9848 488.688 28.1515 488.688 24.6818C488.688 21.2424 488.18 18.4318 487.165 16.25C486.165 14.0682 484.672 12.4621 482.688 11.4318C480.703 10.4015 478.256 9.88636 475.347 9.88636H469.074V39.5682ZM511.193 48H500.648L516.716 1.45454H529.398L545.443 48H534.898L523.239 12.0909H522.875L511.193 48ZM510.534 29.7045H535.443V37.3864H510.534V29.7045ZM559.068 48H548.523L564.591 1.45454H577.273L593.318 48H582.773L571.114 12.0909H570.75L559.068 48ZM558.409 29.7045H583.318V37.3864H558.409V29.7045ZM637.852 1.45454V48H629.352L609.102 18.7045H608.761V48H598.92V1.45454H607.557L627.648 30.7273H628.057V1.45454H637.852Z" fill="black"/>
</svg>
